<svg width="18" height="18" viewBox="0 0 18 18" fill="none" xmlns="http://www.w3.org/2000/svg">
<path d="M17.0895 9C17.0895 9.37856 16.9497 9.7445 16.6882 10.0095C16.4328 10.2808 16.0802 10.4322 15.7153 10.4322H10.2185V16.1358C10.2185 16.5144 10.0726 16.8803 9.81115 17.1453C9.55577 17.4103 9.20918 17.5617 8.84434 17.5617C8.47951 17.5617 8.12684 17.4103 7.87146 17.1453C7.61 16.8803 7.46406 16.5144 7.46406 16.1358V10.4322H1.96726C1.60243 10.4322 1.24976 10.2808 0.994378 10.0095C0.738996 9.7445 0.593063 9.37856 0.593063 9C0.593063 8.62145 0.738996 8.26182 0.994378 7.99052C1.24976 7.72553 1.60243 7.5741 1.96726 7.5741H7.46406V1.8705C7.46406 1.49195 7.61 1.12601 7.87146 0.861016C8.12684 0.589716 8.47951 0.438293 8.84434 0.438293C9.20918 0.438293 9.55577 0.589716 9.81115 0.861016C10.0726 1.12601 10.2185 1.49195 10.2185 1.8705V7.5741H15.7153C16.0802 7.5741 16.4328 7.72553 16.6882 7.99052C16.9497 8.26182 17.0895 8.62145 17.0895 9Z" fill="white"/>
</svg>
